<svg xmlns="http://www.w3.org/2000/svg" viewBox="0 0 254.03 310.49"><defs><style>.cls-1{fill:#e41f1e;}</style></defs><g id="Camada_2" data-name="Camada 2"><g id="Camada_5" data-name="Camada 5"><path class="cls-1" d="M254,127a128.87,128.87,0,0,1-.77,14.11,126.43,126.43,0,0,1-2.38,14.12,123.37,123.37,0,0,1-4.08,14.1,126.28,126.28,0,0,1-14.16,28.23q-3.21,4.8-6.84,9.28a128.11,128.11,0,0,1-19,18.95q-4.47,3.62-9.27,6.83a126.47,126.47,0,0,1-56.45,20.62q-6.09.68-12.32.75l-.85,0h-1V197.58H127a70.73,70.73,0,0,0,64.69-42.33h0a70.56,70.56,0,0,0-22.36-84.68A70.31,70.31,0,0,0,128,56.46H56.45V0H127a129,129,0,0,1,14.11.77,126.47,126.47,0,0,1,56.45,20.62q4.8,3.21,9.27,6.83a128.11,128.11,0,0,1,19,19q3.63,4.48,6.84,9.28a126.47,126.47,0,0,1,20.62,56.45A129.05,129.05,0,0,1,254,127Z"/><path class="cls-1" d="M126.91,254v56.46a129.68,129.68,0,0,1-14-.78,126.16,126.16,0,0,1-56.45-20.62c-3.2-2.13-6.29-4.42-9.27-6.83a127.7,127.7,0,0,1-19-18.95q-3.62-4.47-6.83-9.28A126.36,126.36,0,0,1,.77,197.58,128.87,128.87,0,0,1,0,183.47v-127H56.45v127a70.48,70.48,0,0,0,14.11,42.34,71,71,0,0,0,14.12,14.11,70.19,70.19,0,0,0,28.22,12.7A71.5,71.5,0,0,0,125.23,254l.84,0Z"/><path class="cls-1" d="M143.89,133.75a1.76,1.76,0,0,1-1.76,1.76H128a8.07,8.07,0,1,1-8.83-10.4V94a1.13,1.13,0,0,1,2.26,0v31.12a8.08,8.08,0,0,1,6.87,6.88h13.82A1.76,1.76,0,0,1,143.89,133.75Z"/></g></g></svg>